<svg width="193" height="73" viewBox="0 0 193 73" fill="none" xmlns="http://www.w3.org/2000/svg">
<path d="M11.376 65.7661C9.528 65.7661 7.872 65.4661 6.408 64.8661C4.944 64.2661 3.768 63.3781 2.88 62.2021C2.016 61.0261 1.56 59.6101 1.512 57.9541H8.064C8.16 58.8901 8.484 59.6101 9.036 60.1141C9.588 60.5941 10.308 60.8341 11.196 60.8341C12.108 60.8341 12.828 60.6301 13.356 60.2221C13.884 59.7901 14.148 59.2021 14.148 58.4581C14.148 57.8341 13.932 57.3181 13.5 56.9101C13.092 56.5021 12.576 56.1661 11.952 55.9021C11.352 55.6381 10.488 55.3381 9.36 55.0021C7.728 54.4981 6.396 53.9941 5.364 53.4901C4.332 52.9861 3.444 52.2421 2.7 51.2581C1.956 50.2741 1.584 48.9901 1.584 47.4061C1.584 45.0541 2.436 43.2181 4.14 41.8981C5.844 40.5541 8.064 39.8821 10.8 39.8821C13.584 39.8821 15.828 40.5541 17.532 41.8981C19.236 43.2181 20.148 45.0661 20.268 47.4421H13.608C13.56 46.6261 13.26 45.9901 12.708 45.5341C12.156 45.0541 11.448 44.8141 10.584 44.8141C9.84 44.8141 9.24 45.0181 8.784 45.4261C8.328 45.8101 8.1 46.3741 8.1 47.1181C8.1 47.9341 8.484 48.5701 9.252 49.0261C10.02 49.4821 11.22 49.9741 12.852 50.5021C14.484 51.0541 15.804 51.5821 16.812 52.0861C17.844 52.5901 18.732 53.3221 19.476 54.2821C20.22 55.2421 20.592 56.4781 20.592 57.9901C20.592 59.4301 20.22 60.7381 19.476 61.9141C18.756 63.0901 17.7 64.0261 16.308 64.7221C14.916 65.4181 13.272 65.7661 11.376 65.7661ZM39.0324 65.5141L30.5364 54.3541V65.5141H24.3804V40.2421H30.5364V51.3301L38.9604 40.2421H46.1964L36.4044 52.6261L46.5564 65.5141H39.0324ZM55.638 40.2421V65.5141H49.482V40.2421H55.638ZM66.2552 60.7621H74.3192V65.5141H60.0992V40.2421H66.2552V60.7621ZM83.4114 60.7621H91.4754V65.5141H77.2554V40.2421H83.4114V60.7621Z" fill="black"/>
<path d="M116.3 40.2421V65.5141H110.144V55.1101H100.568V65.5141H94.4117V40.2421H100.568V50.1421H110.144V40.2421H116.3ZM126.792 40.2421V55.3621C126.792 56.8741 127.164 58.0381 127.908 58.8541C128.652 59.6701 129.744 60.0781 131.184 60.0781C132.624 60.0781 133.728 59.6701 134.496 58.8541C135.264 58.0381 135.648 56.8741 135.648 55.3621V40.2421H141.804V55.3261C141.804 57.5821 141.324 59.4901 140.364 61.0501C139.404 62.6101 138.108 63.7861 136.476 64.5781C134.868 65.3701 133.068 65.7661 131.076 65.7661C129.084 65.7661 127.296 65.3821 125.712 64.6141C124.152 63.8221 122.916 62.6461 122.004 61.0861C121.092 59.5021 120.636 57.5821 120.636 55.3261V40.2421H126.792ZM161.427 52.5541C162.891 52.8661 164.067 53.5981 164.955 54.7501C165.843 55.8781 166.287 57.1741 166.287 58.6381C166.287 60.7501 165.543 62.4301 164.055 63.6781C162.591 64.9021 160.539 65.5141 157.899 65.5141H146.127V40.2421H157.503C160.071 40.2421 162.075 40.8301 163.515 42.0061C164.979 43.1821 165.711 44.7781 165.711 46.7941C165.711 48.2821 165.315 49.5181 164.523 50.5021C163.755 51.4861 162.723 52.1701 161.427 52.5541ZM152.283 50.4661H156.315C157.323 50.4661 158.091 50.2501 158.619 49.8181C159.171 49.3621 159.447 48.7021 159.447 47.8381C159.447 46.9741 159.171 46.3141 158.619 45.8581C158.091 45.4021 157.323 45.1741 156.315 45.1741H152.283V50.4661ZM156.819 60.5461C157.851 60.5461 158.643 60.3181 159.195 59.8621C159.771 59.3821 160.059 58.6981 160.059 57.8101C160.059 56.9221 159.759 56.2261 159.159 55.7221C158.583 55.2181 157.779 54.9661 156.747 54.9661H152.283V60.5461H156.819Z" fill="#6C89EA" fill-opacity="0.71"/>
<path d="M155.129 25.7101L153.951 32.1091L164.025 40.281L176.348 36.2308L177.526 29.8318L165.203 33.882L155.129 25.7101ZM169.324 11.4855L149.961 17.8455L165.791 30.6825L181.635 25.4774L179.6 36.5317L182.8 37.1205L185.155 24.3225L169.324 11.4855Z" fill="black"/>
</svg>
